<svg width="23" height="20" viewBox="0 0 23 20" fill="none" xmlns="http://www.w3.org/2000/svg">
<path d="M11.0486 13.8735C11.0048 13.9291 10.9834 13.954 10.9785 13.9601L10.2723 14.5896L11.0876 15.1264L16.0722 18.4085L16.0962 18.4242L16.1213 18.4381C16.6105 18.7091 17.2256 18.8846 17.8121 18.6191C18.401 18.3524 18.6812 17.7683 18.8023 17.1872C18.8024 17.1867 18.8025 17.1862 18.8026 17.1857L21.6657 3.63965C21.8454 2.90228 21.7481 2.1638 21.2466 1.67681C20.7369 1.18178 20.0209 1.15207 19.4284 1.41339L2.61628 7.92207L2.61626 7.922L2.60687 7.92579C2.27055 8.06124 1.9721 8.2277 1.74071 8.43305C1.514 8.63425 1.29358 8.9271 1.25553 9.30969C1.21473 9.71998 1.39959 10.0579 1.63954 10.2852C1.86613 10.5 2.15894 10.6393 2.45518 10.7306C2.45589 10.7308 2.4566 10.731 2.45731 10.7312L6.77239 12.0835L7.08585 12.1818L7.3706 12.018L15.8183 7.1593C15.4064 7.76143 14.9476 8.42399 14.4796 9.09385C13.6531 10.277 12.8011 11.4784 12.1344 12.4028C11.8008 12.8653 11.5152 13.2562 11.303 13.5399C11.1966 13.6822 11.1112 13.7942 11.0486 13.8735Z" stroke="#999999" stroke-width="1.5"/>
</svg>
