<svg width="20" height="20" viewBox="0 0 20 20" fill="none" xmlns="http://www.w3.org/2000/svg">
<path d="M0.0836446 9.91125C0.0830419 11.6576 0.54145 13.3626 1.41283 14.8653L0 20L5.27901 18.6221C6.73355 19.4117 8.37104 19.8278 10.0376 19.8285H10.0419C15.5298 19.8285 19.9977 15.3825 20 9.91894C20.0009 7.27089 18.9659 4.78115 17.0859 2.90816C15.2057 1.03517 12.7056 0.00309606 10.0419 0.00195312C4.55274 0.00195312 0.0857735 4.44712 0.0834771 9.91094L0.0836446 9.91125ZM3.22717 14.6064L3.03012 14.2948C2.20148 12.9834 1.76414 11.4678 1.76474 9.91168C1.76655 5.3705 5.47937 1.67567 10.0448 1.67567C12.2557 1.67653 14.3335 2.5345 15.8965 4.09116C17.4592 5.64792 18.3192 7.71741 18.3186 9.91814C18.3165 14.4596 14.6036 18.1547 10.0417 18.1547H10.0384C8.553 18.1539 7.09623 17.7569 5.82578 17.0065L5.52341 16.8281L2.39062 17.6457L3.22717 14.6064ZM10.0419 19.8285H10.042H10.0419C10.0418 19.8285 10.0417 19.8285 10.0419 19.8285Z" fill="#999999"/>
</svg>
